<svg xmlns="http://www.w3.org/2000/svg" width="30.181" height="26.001" viewBox="0 0 30.181 26.001">
  <defs>
    <clipPath id="clip-path">
      <rect width="30.181" height="26.001" fill="none"/>
    </clipPath>
  </defs>
  <g clip-path="url(#clip-path)">
    <path class="base" d="M-4106,16V8h8v8Zm-8,0V8h8v8Zm-8,0V8h8v8Zm16-8,8-4V8Zm-8,0,8-4V8Zm-8,0,8-4V8Z" transform="translate(4123.001 9)" fill="#ced7e5"/>
    <g transform="translate(-1070.999 -639)">
      <path class="white" d="M5210,664h16l-4-24h-8Z" transform="translate(-4126)" fill="#fff"/>
      <path class="red" d="M-4122,24l.667-4h14.667l.667,4Zm1.333-8,.667-4h12l.667,4Zm1.333-8,.667-4h9.333l.667,4Z" transform="translate(5206 640)" fill="#d35b57"/>
    </g>
    <g id="stroke" transform="translate(3819 -191)" fill="none" stroke-linejoin="round">
      <path d="M-3806,216h-12v-8l8-4v4l5.817-2.908.849-5.091h0l.667-4h0l.667-4h8l.667,4h0l.667,4h0l2.667,16Z" stroke="none"/>
      <path d="M -3789.99951171875 216.0003509521484 L -3792.66650390625 200.0004730224609 L -3792.666259765625 200.0004730224609 L -3793.333251953125 196.0000152587891 L -3794 191.9995727539063 L -3802 191.9995727539063 L -3802.666748046875 196.0000152587891 L -3802.6669921875 196.0000152587891 L -3803.333740234375 200.0004730224609 L -3803.33349609375 200.0004730224609 L -3804.18212890625 205.0910034179688 L -3809.9990234375 207.9994506835938 L -3809.9990234375 203.9999542236328 L -3817.999755859375 207.9994506835938 L -3817.999755859375 216.0003509521484 L -3809.9990234375 216.0003509521484 L -3806.00048828125 216.0003509521484 L -3789.99951171875 216.0003509521484 M -3789.99951171875 217.0003509521484 L -3806.00048828125 217.0003509521484 L -3809.9990234375 217.0003509521484 L -3817.999755859375 217.0003509521484 C -3818.552001953125 217.0003509521484 -3818.999755859375 216.5526275634766 -3818.999755859375 216.0003509521484 L -3818.999755859375 207.9994506835938 C -3818.999755859375 207.6206512451172 -3818.78564453125 207.2743530273438 -3818.44677734375 207.10498046875 L -3810.446044921875 203.1054840087891 C -3810.30517578125 203.0349426269531 -3810.15185546875 202.9999389648438 -3809.9990234375 202.9999389648438 C -3809.816162109375 202.9999389648438 -3809.6337890625 203.050048828125 -3809.47314453125 203.1493225097656 C -3809.178466796875 203.3315277099609 -3808.9990234375 203.6533966064453 -3808.9990234375 203.9999542236328 L -3808.9990234375 206.3814086914063 L -3805.084716796875 204.4243011474609 L -3804.323486328125 199.8576812744141 C -3804.322509765625 199.8504791259766 -3804.3212890625 199.8432769775391 -3804.320068359375 199.8360748291016 L -3803.6533203125 195.8356170654297 C -3803.652099609375 195.8284149169922 -3803.65087890625 195.8212432861328 -3803.649658203125 195.8140869140625 L -3802.986328125 191.8351745605469 C -3802.906005859375 191.3529815673828 -3802.48876953125 190.9995727539063 -3802 190.9995727539063 L -3794 190.9995727539063 C -3793.51123046875 190.9995727539063 -3793.093994140625 191.3529815673828 -3793.013671875 191.8351745605469 L -3792.346923828125 195.8356170654297 L -3791.679931640625 199.8360137939453 C -3791.6787109375 199.8431396484375 -3791.677490234375 199.8502807617188 -3791.676513671875 199.857421875 L -3789.01318359375 215.8359222412109 C -3788.96484375 216.1258850097656 -3789.04638671875 216.4224243164063 -3789.236572265625 216.6467132568359 C -3789.426513671875 216.8710021972656 -3789.70556640625 217.0003509521484 -3789.99951171875 217.0003509521484 Z" stroke="none" fill="#ced7e5"/>
    </g>
  </g>
</svg>
