<svg xmlns="http://www.w3.org/2000/svg" xmlns:xlink="http://www.w3.org/1999/xlink" width="34" height="30" viewBox="0 0 34 30">
  <defs>
    <clipPath id="clip-path">
      <rect width="34" height="30" fill="none"/>
    </clipPath>
  </defs>
  <g id="ic_sensor_4" clip-path="url(#clip-path)">
    <g id="ic_sensor" transform="translate(4123 1)" fill="#e1984e" stroke-linecap="round" stroke-linejoin="round">
      <path d="M -4097.5 28.81325912475586 L -4098.2255859375 28.44615936279297 L -4106.0263671875 24.50007057189941 L -4113.99951171875 24.50007057189941 C -4118.68701171875 24.50007057189941 -4122.50048828125 20.68712997436523 -4122.50048828125 16.00038909912109 C -4122.50048828125 14.39299011230469 -4122.04931640625 12.82783031463623 -4121.1962890625 11.4741096496582 C -4120.40625 10.22052001953125 -4119.3056640625 9.195925712585449 -4118.0029296875 8.499599456787109 C -4117.27099609375 5.988015651702881 -4115.732421875 3.727771997451782 -4113.65283203125 2.115530014038086 C -4111.44580078125 0.4044399857521057 -4108.7998046875 -0.5 -4106 -0.5 C -4103.20068359375 -0.5 -4100.55419921875 0.4045000076293945 -4098.34716796875 2.115710020065308 C -4096.267578125 3.728068590164185 -4094.728759765625 5.988444805145264 -4093.99658203125 8.500003814697266 C -4092.694580078125 9.196406364440918 -4091.593994140625 10.22098445892334 -4090.80419921875 11.47445964813232 C -4089.951416015625 12.82814979553223 -4089.50048828125 14.39319038391113 -4089.50048828125 16.00038909912109 C -4089.50048828125 20.51921463012695 -4093.045166015625 24.22574424743652 -4097.5 24.48553466796875 L -4097.5 28 L -4097.5 28.81325912475586 Z" stroke="none"/>
      <path d="M -4098 28 L -4098 24.00007057189941 C -4093.581787109375 24.00007057189941 -4090.00048828125 20.41868019104004 -4090.00048828125 16.00038909912109 C -4090.00048828125 12.86950969696045 -4091.799072265625 10.15832042694092 -4094.419189453125 8.844180107116699 C -4095.8046875 3.747560024261475 -4100.46484375 -1.77635683940025e-15 -4106 -1.77635683940025e-15 C -4111.53564453125 -1.77635683940025e-15 -4116.1953125 3.747210025787354 -4117.58056640625 8.843830108642578 C -4120.20166015625 10.15785026550293 -4122.00048828125 12.86923980712891 -4122.00048828125 16.00038909912109 C -4122.00048828125 20.41868019104004 -4118.4189453125 24.00007057189941 -4113.99951171875 24.00007057189941 L -4105.9072265625 24.00007057189941 L -4098 28 M -4098 29 C -4098.154296875 29 -4098.30908203125 28.96429443359375 -4098.451171875 28.89233016967773 L -4106.14599609375 25.00007057189941 L -4113.99951171875 25.00007057189941 C -4118.962890625 25.00007057189941 -4123.00048828125 20.96282958984375 -4123.00048828125 16.00038909912109 C -4123.00048828125 14.2985200881958 -4122.52294921875 12.64118003845215 -4121.61962890625 11.20753002166748 C -4120.82080078125 9.940045356750488 -4119.7216796875 8.893651008605957 -4118.4228515625 8.159964561462402 C -4117.6396484375 5.627862453460693 -4116.06640625 3.354003429412842 -4113.95947265625 1.720379948616028 C -4111.6640625 -0.05931000038981438 -4108.91162109375 -1 -4106 -1 C -4103.0888671875 -1 -4100.33642578125 -0.05925000086426735 -4098.04052734375 1.72055995464325 C -4095.93359375 3.354287624359131 -4094.3603515625 5.628329277038574 -4093.57666015625 8.160402297973633 C -4092.278564453125 8.894161224365234 -4091.1796875 9.940553665161133 -4090.38134765625 11.20792007446289 C -4089.47802734375 12.64153003692627 -4089.00048828125 14.29874038696289 -4089.00048828125 16.00038909912109 C -4089.00048828125 20.62481307983398 -4092.506591796875 24.44580078125 -4097 24.94487762451172 L -4097 28 C -4097 28.34741020202637 -4097.18017578125 28.66991996765137 -4097.47607421875 28.85187911987305 C -4097.63623046875 28.9503288269043 -4097.81787109375 29 -4098 29 Z" stroke="none" fill="#bf6f1b"/>
    </g>
  </g>
</svg>
