<svg xmlns="http://www.w3.org/2000/svg" viewBox="0 0 24 32" width="24" height="32">
    <style type="text/css">
        .st0{fill:#CED7E5;}
        .st1{fill:#FFFFFF;}
        .st2{fill:#5DCEFF;}
    </style>
    <path class="st0" d="M6,22c0-2.1,1.1-4.1,3-5.2V7c0-1.7,1.3-3,3-3s3,1.3,3,3v9.8c1.9,1.1,3,3.1,3,5.2c0,3.3-2.7,6-6,6
	S6,25.3,6,22z"/>
    <path class="st1"
          d="M12,6L12,6c0.6,0,1,0.4,1,1v15c0,0.6-0.4,1-1,1l0,0c-0.6,0-1-0.4-1-1V7C11,6.4,11.4,6,12,6z"/>
    <circle class="st2" cx="12" cy="22" r="4"/>
</svg>
