<svg xmlns="http://www.w3.org/2000/svg" viewBox="0 0 24 32" width="24" height="32">
    <style type="text/css">
        .st1{fill:#CED7E5;}
    </style>
    <path class="st1" d="M16,22.8c0,1.1-0.6,2.2-1.6,2.8c-0.5,0.2-1.1,0-1.3-0.5C13,24.9,13,24.8,13,24.6l0,0
	c0-0.3,0.2-0.7,0.5-0.8c0.5-0.3,0.7-0.9,0.4-1.4c-0.2-0.3-0.5-0.5-0.9-0.5H5c-0.6,0-1-0.4-1-1l0,0c0-0.6,0.4-1,1-1h7.8
	C14.5,19.8,15.9,21.1,16,22.8z"/>
    <path class="st1" d="M13,11c0-1.1-0.6-2.2-1.6-2.8c-0.5-0.2-1.1,0-1.3,0.5C10,8.9,10,9,10,9.2l0,0
	c0,0.3,0.2,0.7,0.5,0.8c0.5,0.3,0.7,0.9,0.4,1.4c-0.2,0.3-0.5,0.5-0.9,0.5H5c-0.6,0-1,0.4-1,1l0,0c0,0.6,0.4,1,1,1h4.8
	C11.5,13.9,12.9,12.7,13,11z"/>
    <path class="st1" d="M20,12.9c0,1.1-0.3,2.1-1,3c-0.9,1.3-2.4,2-4,2H1c-0.6,0-1-0.4-1-1l0,0c0-0.6,0.4-1,1-1h13.8
	c1.7,0,3.1-1.2,3.2-2.9c0.1-1.4-0.9-2.7-2.2-3C15.3,9.9,15,9.5,15,9.1V9c0-0.5,0.4-1,0.9-1c0.1,0,0.2,0,0.2,0
	C18.4,8.6,20,10.6,20,12.9z"/>
</svg>
